<svg width="346" height="650" viewBox="0 0 346 650" fill="none" xmlns="http://www.w3.org/2000/svg">
<path d="M104.098 8.976L101.326 3.66H102.85L104.782 7.752L106.714 3.66H108.226L105.466 8.976V12H104.098V8.976ZM115.612 8.688C115.612 10.764 114.076 12.108 112.18 12.108C110.296 12.108 108.868 10.764 108.868 8.688C108.868 6.612 110.356 5.28 112.24 5.28C114.124 5.28 115.612 6.612 115.612 8.688ZM110.26 8.688C110.26 10.188 111.148 10.92 112.18 10.92C113.2 10.92 114.208 10.188 114.208 8.688C114.208 7.188 113.236 6.468 112.216 6.468C111.184 6.468 110.26 7.188 110.26 8.688ZM122.952 5.388V12H121.584V11.208C121.152 11.772 120.408 12.096 119.628 12.096C118.08 12.096 116.904 11.124 116.904 9.276V5.388H118.26V9.072C118.26 10.284 118.92 10.908 119.916 10.908C120.924 10.908 121.584 10.284 121.584 9.072V5.388H122.952ZM126.125 8.52V12H124.757V5.388H126.125V6.348C126.509 5.688 127.169 5.28 128.105 5.28V6.696H127.757C126.749 6.696 126.125 7.116 126.125 8.52ZM132.024 8.664C132.024 6.624 133.404 5.28 135.156 5.28C136.02 5.28 136.932 5.688 137.436 6.312V3.12H138.816V12H137.436V11.004C137.016 11.604 136.224 12.108 135.144 12.108C133.404 12.108 132.024 10.704 132.024 8.664ZM137.436 8.688C137.436 7.272 136.464 6.468 135.432 6.468C134.412 6.468 133.428 7.236 133.428 8.664C133.428 10.092 134.412 10.92 135.432 10.92C136.464 10.92 137.436 10.116 137.436 8.688ZM141.981 8.52V12H140.613V5.388H141.981V6.348C142.365 5.688 143.025 5.28 143.961 5.28V6.696H143.613C142.605 6.696 141.981 7.116 141.981 8.52ZM144.762 8.664C144.762 6.624 146.142 5.28 147.882 5.28C148.998 5.28 149.766 5.808 150.174 6.348V5.388H151.554V12H150.174V11.016C149.754 11.58 148.962 12.108 147.858 12.108C146.142 12.108 144.762 10.704 144.762 8.664ZM150.174 8.688C150.174 7.272 149.202 6.468 148.17 6.468C147.15 6.468 146.166 7.236 146.166 8.664C146.166 10.092 147.15 10.92 148.17 10.92C149.202 10.92 150.174 10.116 150.174 8.688ZM153.519 12V6.504H152.739V5.388H153.519V4.92C153.519 3.396 154.299 2.736 156.027 2.736V3.876C155.187 3.876 154.899 4.164 154.899 4.92V5.388H156.123V6.504H154.899V12H153.519ZM157.552 10.164V6.504H156.772V5.388H157.552V3.744H158.932V5.388H160.54V6.504H158.932V10.164C158.932 10.656 159.124 10.86 159.7 10.86H160.54V12H159.46C158.284 12 157.552 11.508 157.552 10.164ZM164.918 12V3.66H166.286V12H164.918ZM167.626 8.664C167.626 6.624 169.006 5.28 170.758 5.28C171.622 5.28 172.534 5.688 173.038 6.312V3.12H174.418V12H173.038V11.004C172.618 11.604 171.826 12.108 170.746 12.108C169.006 12.108 167.626 10.704 167.626 8.664ZM173.038 8.688C173.038 7.272 172.066 6.468 171.034 6.468C170.014 6.468 169.03 7.236 169.03 8.664C169.03 10.092 170.014 10.92 171.034 10.92C172.066 10.92 173.038 10.116 173.038 8.688ZM178.998 6.432C178.074 6.432 177.33 7.056 177.186 8.1H180.846C180.822 7.08 180.018 6.432 178.998 6.432ZM182.094 10.032C181.722 11.184 180.678 12.108 179.058 12.108C177.162 12.108 175.758 10.764 175.758 8.688C175.758 6.612 177.102 5.28 179.058 5.28C180.942 5.28 182.274 6.588 182.274 8.532C182.274 8.76 182.262 8.976 182.226 9.204H177.174C177.27 10.296 178.05 10.956 179.058 10.956C179.898 10.956 180.366 10.548 180.618 10.032H182.094ZM183.165 8.664C183.165 6.624 184.545 5.28 186.285 5.28C187.401 5.28 188.169 5.808 188.577 6.348V5.388H189.957V12H188.577V11.016C188.157 11.58 187.365 12.108 186.261 12.108C184.545 12.108 183.165 10.704 183.165 8.664ZM188.577 8.688C188.577 7.272 187.605 6.468 186.573 6.468C185.553 6.468 184.569 7.236 184.569 8.664C184.569 10.092 185.553 10.92 186.573 10.92C187.605 10.92 188.577 10.116 188.577 8.688Z" fill="#1D1D1F"/>
<path d="M225.058 117V108.66H226.426V117H225.058ZM227.766 113.664C227.766 111.624 229.146 110.28 230.898 110.28C231.762 110.28 232.674 110.688 233.178 111.312V108.12H234.558V117H233.178V116.004C232.758 116.604 231.966 117.108 230.886 117.108C229.146 117.108 227.766 115.704 227.766 113.664ZM233.178 113.688C233.178 112.272 232.206 111.468 231.174 111.468C230.154 111.468 229.17 112.236 229.17 113.664C229.17 115.092 230.154 115.92 231.174 115.92C232.206 115.92 233.178 115.116 233.178 113.688ZM239.139 111.432C238.215 111.432 237.471 112.056 237.327 113.1H240.987C240.963 112.08 240.159 111.432 239.139 111.432ZM242.235 115.032C241.863 116.184 240.819 117.108 239.199 117.108C237.303 117.108 235.899 115.764 235.899 113.688C235.899 111.612 237.243 110.28 239.199 110.28C241.083 110.28 242.415 111.588 242.415 113.532C242.415 113.76 242.403 113.976 242.367 114.204H237.315C237.411 115.296 238.191 115.956 239.199 115.956C240.039 115.956 240.507 115.548 240.759 115.032H242.235ZM243.305 113.664C243.305 111.624 244.685 110.28 246.425 110.28C247.541 110.28 248.309 110.808 248.717 111.348V110.388H250.097V117H248.717V116.016C248.297 116.58 247.505 117.108 246.401 117.108C244.685 117.108 243.305 115.704 243.305 113.664ZM248.717 113.688C248.717 112.272 247.745 111.468 246.713 111.468C245.693 111.468 244.709 112.236 244.709 113.664C244.709 115.092 245.693 115.92 246.713 115.92C247.745 115.92 248.717 115.116 248.717 113.688ZM254.555 113.664C254.555 111.624 255.935 110.28 257.675 110.28C258.791 110.28 259.559 110.808 259.967 111.348V110.388H261.347V117H259.967V116.016C259.547 116.58 258.755 117.108 257.651 117.108C255.935 117.108 254.555 115.704 254.555 113.664ZM259.967 113.688C259.967 112.272 258.995 111.468 257.963 111.468C256.943 111.468 255.959 112.236 255.959 113.664C255.959 115.092 256.943 115.92 257.963 115.92C258.995 115.92 259.967 115.116 259.967 113.688ZM267.836 117V113.304C267.836 112.092 267.176 111.468 266.18 111.468C265.172 111.468 264.512 112.092 264.512 113.304V117H263.144V110.388H264.512V111.144C264.956 110.604 265.688 110.28 266.48 110.28C268.028 110.28 269.192 111.252 269.192 113.1V117H267.836ZM270.481 113.664C270.481 111.624 271.861 110.28 273.613 110.28C274.477 110.28 275.389 110.688 275.893 111.312V108.12H277.273V117H275.893V116.004C275.473 116.604 274.681 117.108 273.601 117.108C271.861 117.108 270.481 115.704 270.481 113.664ZM275.893 113.688C275.893 112.272 274.921 111.468 273.889 111.468C272.869 111.468 271.885 112.236 271.885 113.664C271.885 115.092 272.869 115.92 273.889 115.92C274.921 115.92 275.893 115.116 275.893 113.688ZM283.555 113.52V117H282.187V110.388H283.555V111.348C283.939 110.688 284.599 110.28 285.535 110.28V111.696H285.187C284.179 111.696 283.555 112.116 283.555 113.52ZM289.577 111.432C288.653 111.432 287.909 112.056 287.765 113.1H291.425C291.401 112.08 290.597 111.432 289.577 111.432ZM292.673 115.032C292.301 116.184 291.257 117.108 289.637 117.108C287.741 117.108 286.337 115.764 286.337 113.688C286.337 111.612 287.681 110.28 289.637 110.28C291.521 110.28 292.853 111.588 292.853 113.532C292.853 113.76 292.841 113.976 292.805 114.204H287.753C287.849 115.296 288.629 115.956 289.637 115.956C290.477 115.956 290.945 115.548 291.197 115.032H292.673ZM299.131 115.152C299.131 116.268 298.159 117.108 296.599 117.108C295.015 117.108 293.899 116.172 293.839 114.972H295.255C295.303 115.512 295.819 115.956 296.575 115.956C297.367 115.956 297.787 115.62 297.787 115.164C297.787 113.868 293.947 114.612 293.947 112.188C293.947 111.132 294.931 110.28 296.491 110.28C297.991 110.28 298.975 111.084 299.047 112.404H297.679C297.631 111.828 297.187 111.432 296.443 111.432C295.711 111.432 295.327 111.732 295.327 112.176C295.327 113.508 299.059 112.764 299.131 115.152ZM303.393 111.432C302.469 111.432 301.725 112.056 301.581 113.1H305.241C305.217 112.08 304.413 111.432 303.393 111.432ZM306.489 115.032C306.117 116.184 305.073 117.108 303.453 117.108C301.557 117.108 300.153 115.764 300.153 113.688C300.153 111.612 301.497 110.28 303.453 110.28C305.337 110.28 306.669 111.588 306.669 113.532C306.669 113.76 306.657 113.976 306.621 114.204H301.569C301.665 115.296 302.445 115.956 303.453 115.956C304.293 115.956 304.761 115.548 305.013 115.032H306.489ZM307.559 113.664C307.559 111.624 308.939 110.28 310.679 110.28C311.795 110.28 312.563 110.808 312.971 111.348V110.388H314.351V117H312.971V116.016C312.551 116.58 311.759 117.108 310.655 117.108C308.939 117.108 307.559 115.704 307.559 113.664ZM312.971 113.688C312.971 112.272 311.999 111.468 310.967 111.468C309.947 111.468 308.963 112.236 308.963 113.664C308.963 115.092 309.947 115.92 310.967 115.92C311.999 115.92 312.971 115.116 312.971 113.688ZM317.516 113.52V117H316.148V110.388H317.516V111.348C317.9 110.688 318.56 110.28 319.496 110.28V111.696H319.148C318.14 111.696 317.516 112.116 317.516 113.52ZM320.298 113.688C320.298 111.624 321.642 110.28 323.538 110.28C325.158 110.28 326.214 111.084 326.586 112.476H325.11C324.882 111.84 324.354 111.432 323.538 111.432C322.434 111.432 321.702 112.248 321.702 113.688C321.702 115.14 322.434 115.956 323.538 115.956C324.354 115.956 324.858 115.596 325.11 114.912H326.586C326.214 116.208 325.158 117.108 323.538 117.108C321.642 117.108 320.298 115.764 320.298 113.688ZM327.949 117V108.12H329.317V111.156C329.773 110.604 330.517 110.28 331.369 110.28C332.845 110.28 333.997 111.252 333.997 113.1V117H332.641V113.304C332.641 112.092 331.981 111.468 330.985 111.468C329.977 111.468 329.317 112.092 329.317 113.304V117H327.949Z" fill="#1D1D1F"/>
<path d="M113.959 220.612C113.959 219.784 113.335 219.28 112.423 219.28H110.623V221.884H112.471C113.395 221.884 113.959 221.416 113.959 220.612ZM113.743 216.976C113.743 216.22 113.203 215.776 112.315 215.776H110.623V218.164H112.315C113.203 218.164 113.743 217.744 113.743 216.976ZM115.327 220.756C115.327 222.028 114.295 223 112.591 223H109.255V214.66H112.435C114.199 214.66 115.135 215.632 115.135 216.808C115.135 217.816 114.523 218.428 113.719 218.716C114.607 218.872 115.327 219.76 115.327 220.756ZM122.802 216.388V223H121.434V222.208C121.002 222.772 120.258 223.096 119.478 223.096C117.93 223.096 116.754 222.124 116.754 220.276V216.388H118.11V220.072C118.11 221.284 118.77 221.908 119.766 221.908C120.774 221.908 121.434 221.284 121.434 220.072V216.388H122.802ZM129.539 221.152C129.539 222.268 128.567 223.108 127.007 223.108C125.423 223.108 124.307 222.172 124.247 220.972H125.663C125.711 221.512 126.227 221.956 126.983 221.956C127.775 221.956 128.195 221.62 128.195 221.164C128.195 219.868 124.355 220.612 124.355 218.188C124.355 217.132 125.339 216.28 126.899 216.28C128.399 216.28 129.383 217.084 129.455 218.404H128.087C128.039 217.828 127.595 217.432 126.851 217.432C126.119 217.432 125.735 217.732 125.735 218.176C125.735 219.508 129.467 218.764 129.539 221.152ZM131.017 223V216.388H132.385V223H131.017ZM131.713 215.512C131.221 215.512 130.837 215.128 130.837 214.636C130.837 214.144 131.221 213.76 131.713 213.76C132.193 213.76 132.577 214.144 132.577 214.636C132.577 215.128 132.193 215.512 131.713 215.512ZM138.873 223V219.304C138.873 218.092 138.213 217.468 137.217 217.468C136.209 217.468 135.549 218.092 135.549 219.304V223H134.181V216.388H135.549V217.144C135.993 216.604 136.725 216.28 137.517 216.28C139.065 216.28 140.229 217.252 140.229 219.1V223H138.873ZM144.758 217.432C143.834 217.432 143.09 218.056 142.946 219.1H146.606C146.582 218.08 145.778 217.432 144.758 217.432ZM147.854 221.032C147.482 222.184 146.438 223.108 144.818 223.108C142.922 223.108 141.518 221.764 141.518 219.688C141.518 217.612 142.862 216.28 144.818 216.28C146.702 216.28 148.034 217.588 148.034 219.532C148.034 219.76 148.022 219.976 147.986 220.204H142.934C143.03 221.296 143.81 221.956 144.818 221.956C145.658 221.956 146.126 221.548 146.378 221.032H147.854ZM154.312 221.152C154.312 222.268 153.34 223.108 151.78 223.108C150.196 223.108 149.08 222.172 149.02 220.972H150.436C150.484 221.512 151 221.956 151.756 221.956C152.548 221.956 152.968 221.62 152.968 221.164C152.968 219.868 149.128 220.612 149.128 218.188C149.128 217.132 150.112 216.28 151.672 216.28C153.172 216.28 154.156 217.084 154.228 218.404H152.86C152.812 217.828 152.368 217.432 151.624 217.432C150.892 217.432 150.508 217.732 150.508 218.176C150.508 219.508 154.24 218.764 154.312 221.152ZM160.723 221.152C160.723 222.268 159.751 223.108 158.191 223.108C156.607 223.108 155.491 222.172 155.431 220.972H156.847C156.895 221.512 157.411 221.956 158.167 221.956C158.959 221.956 159.379 221.62 159.379 221.164C159.379 219.868 155.539 220.612 155.539 218.188C155.539 217.132 156.523 216.28 158.083 216.28C159.583 216.28 160.567 217.084 160.639 218.404H159.271C159.223 217.828 158.779 217.432 158.035 217.432C157.303 217.432 156.919 217.732 156.919 218.176C156.919 219.508 160.651 218.764 160.723 221.152ZM166.686 218.5H168.198C169.266 218.5 169.746 217.984 169.746 217.144C169.746 216.28 169.266 215.776 168.198 215.776H166.686V218.5ZM171.15 217.144C171.15 218.332 170.37 219.616 168.198 219.616H166.686V223H165.318V214.66H168.198C170.178 214.66 171.15 215.788 171.15 217.144ZM172.455 223V214.12H173.823V223H172.455ZM175.163 219.664C175.163 217.624 176.543 216.28 178.283 216.28C179.399 216.28 180.167 216.808 180.575 217.348V216.388H181.955V223H180.575V222.016C180.155 222.58 179.363 223.108 178.259 223.108C176.543 223.108 175.163 221.704 175.163 219.664ZM180.575 219.688C180.575 218.272 179.603 217.468 178.571 217.468C177.551 217.468 176.567 218.236 176.567 219.664C176.567 221.092 177.551 221.92 178.571 221.92C179.603 221.92 180.575 221.116 180.575 219.688ZM188.444 223V219.304C188.444 218.092 187.784 217.468 186.788 217.468C185.78 217.468 185.12 218.092 185.12 219.304V223H183.752V216.388H185.12V217.144C185.564 216.604 186.296 216.28 187.088 216.28C188.636 216.28 189.8 217.252 189.8 219.1V223H188.444Z" fill="#1D1D1F"/>
<path d="M226.856 323.812C226.856 321.316 228.764 319.552 231.116 319.552C232.856 319.552 234.356 320.428 234.992 322.06H233.348C232.904 321.172 232.112 320.752 231.116 320.752C229.46 320.752 228.26 321.928 228.26 323.812C228.26 325.696 229.46 326.884 231.116 326.884C232.112 326.884 232.904 326.464 233.348 325.576H234.992C234.356 327.208 232.856 328.072 231.116 328.072C228.764 328.072 226.856 326.32 226.856 323.812ZM242.893 324.688C242.893 326.764 241.357 328.108 239.461 328.108C237.577 328.108 236.149 326.764 236.149 324.688C236.149 322.612 237.637 321.28 239.521 321.28C241.405 321.28 242.893 322.612 242.893 324.688ZM237.541 324.688C237.541 326.188 238.429 326.92 239.461 326.92C240.481 326.92 241.489 326.188 241.489 324.688C241.489 323.188 240.517 322.468 239.497 322.468C238.465 322.468 237.541 323.188 237.541 324.688ZM248.938 328V324.304C248.938 323.092 248.278 322.468 247.282 322.468C246.274 322.468 245.614 323.092 245.614 324.304V328H244.246V321.388H245.614V322.144C246.058 321.604 246.79 321.28 247.582 321.28C249.13 321.28 250.294 322.252 250.294 324.1V328H248.938ZM251.583 324.688C251.583 322.624 252.927 321.28 254.823 321.28C256.443 321.28 257.499 322.084 257.871 323.476H256.395C256.167 322.84 255.639 322.432 254.823 322.432C253.719 322.432 252.987 323.248 252.987 324.688C252.987 326.14 253.719 326.956 254.823 326.956C255.639 326.956 256.143 326.596 256.395 325.912H257.871C257.499 327.208 256.443 328.108 254.823 328.108C252.927 328.108 251.583 326.764 251.583 324.688ZM262.018 322.432C261.094 322.432 260.35 323.056 260.206 324.1H263.866C263.842 323.08 263.038 322.432 262.018 322.432ZM265.114 326.032C264.742 327.184 263.698 328.108 262.078 328.108C260.182 328.108 258.778 326.764 258.778 324.688C258.778 322.612 260.122 321.28 262.078 321.28C263.962 321.28 265.294 322.588 265.294 324.532C265.294 324.76 265.282 324.976 265.246 325.204H260.194C260.29 326.296 261.07 326.956 262.078 326.956C262.918 326.956 263.386 326.548 263.638 326.032H265.114ZM268.008 322.36C268.428 321.808 269.232 321.28 270.312 321.28C272.052 321.28 273.42 322.624 273.42 324.664C273.42 326.704 272.052 328.108 270.312 328.108C269.22 328.108 268.44 327.556 268.008 327.04V331.144H266.64V321.388H268.008V322.36ZM272.028 324.664C272.028 323.236 271.044 322.468 270.012 322.468C268.992 322.468 268.008 323.272 268.008 324.688C268.008 326.116 268.992 326.92 270.012 326.92C271.044 326.92 272.028 326.092 272.028 324.664ZM274.989 326.164V322.504H274.209V321.388H274.989V319.744H276.369V321.388H277.977V322.504H276.369V326.164C276.369 326.656 276.561 326.86 277.137 326.86H277.977V328H276.897C275.721 328 274.989 327.508 274.989 326.164ZM285.619 326.596L288.103 319.66H289.543L286.411 328H284.827L281.683 319.66H283.147L285.619 326.596ZM290.231 324.664C290.231 322.624 291.611 321.28 293.351 321.28C294.467 321.28 295.235 321.808 295.643 322.348V321.388H297.023V328H295.643V327.016C295.223 327.58 294.431 328.108 293.327 328.108C291.611 328.108 290.231 326.704 290.231 324.664ZM295.643 324.688C295.643 323.272 294.671 322.468 293.639 322.468C292.619 322.468 291.635 323.236 291.635 324.664C291.635 326.092 292.619 326.92 293.639 326.92C294.671 326.92 295.643 326.116 295.643 324.688ZM298.82 328V319.12H300.188V328H298.82ZM301.984 328V321.388H303.352V328H301.984ZM302.68 320.512C302.188 320.512 301.804 320.128 301.804 319.636C301.804 319.144 302.188 318.76 302.68 318.76C303.16 318.76 303.544 319.144 303.544 319.636C303.544 320.128 303.16 320.512 302.68 320.512ZM304.692 324.664C304.692 322.624 306.072 321.28 307.824 321.28C308.688 321.28 309.6 321.688 310.104 322.312V319.12H311.484V328H310.104V327.004C309.684 327.604 308.892 328.108 307.812 328.108C306.072 328.108 304.692 326.704 304.692 324.664ZM310.104 324.688C310.104 323.272 309.132 322.468 308.1 322.468C307.08 322.468 306.096 323.236 306.096 324.664C306.096 326.092 307.08 326.92 308.1 326.92C309.132 326.92 310.104 326.116 310.104 324.688ZM312.825 324.664C312.825 322.624 314.205 321.28 315.945 321.28C317.061 321.28 317.829 321.808 318.237 322.348V321.388H319.617V328H318.237V327.016C317.817 327.58 317.025 328.108 315.921 328.108C314.205 328.108 312.825 326.704 312.825 324.664ZM318.237 324.688C318.237 323.272 317.265 322.468 316.233 322.468C315.213 322.468 314.229 323.236 314.229 324.664C314.229 326.092 315.213 326.92 316.233 326.92C317.265 326.92 318.237 326.116 318.237 324.688ZM321.63 326.164V322.504H320.85V321.388H321.63V319.744H323.01V321.388H324.618V322.504H323.01V326.164C323.01 326.656 323.202 326.86 323.778 326.86H324.618V328H323.538C322.362 328 321.63 327.508 321.63 326.164ZM325.879 328V321.388H327.247V328H325.879ZM326.575 320.512C326.083 320.512 325.699 320.128 325.699 319.636C325.699 319.144 326.083 318.76 326.575 318.76C327.055 318.76 327.439 319.144 327.439 319.636C327.439 320.128 327.055 320.512 326.575 320.512ZM335.343 324.688C335.343 326.764 333.807 328.108 331.911 328.108C330.027 328.108 328.599 326.764 328.599 324.688C328.599 322.612 330.087 321.28 331.971 321.28C333.855 321.28 335.343 322.612 335.343 324.688ZM329.991 324.688C329.991 326.188 330.879 326.92 331.911 326.92C332.931 326.92 333.939 326.188 333.939 324.688C333.939 323.188 332.967 322.468 331.947 322.468C330.915 322.468 329.991 323.188 329.991 324.688ZM341.387 328V324.304C341.387 323.092 340.727 322.468 339.731 322.468C338.723 322.468 338.063 323.092 338.063 324.304V328H336.695V321.388H338.063V322.144C338.507 321.604 339.239 321.28 340.031 321.28C341.579 321.28 342.743 322.252 342.743 324.1V328H341.387Z" fill="#1D1D1F"/>
<path d="M67.7485 428.5H69.2605C70.3285 428.5 70.8085 427.984 70.8085 427.144C70.8085 426.28 70.3285 425.776 69.2605 425.776H67.7485V428.5ZM72.2125 427.144C72.2125 428.332 71.4325 429.616 69.2605 429.616H67.7485V433H66.3805V424.66H69.2605C71.2405 424.66 72.2125 425.788 72.2125 427.144ZM74.8852 429.52V433H73.5172V426.388H74.8852V427.348C75.2692 426.688 75.9292 426.28 76.8652 426.28V427.696H76.5172C75.5092 427.696 74.8852 428.116 74.8852 429.52ZM84.4227 429.688C84.4227 431.764 82.8867 433.108 80.9907 433.108C79.1067 433.108 77.6787 431.764 77.6787 429.688C77.6787 427.612 79.1667 426.28 81.0507 426.28C82.9347 426.28 84.4227 427.612 84.4227 429.688ZM79.0707 429.688C79.0707 431.188 79.9587 431.92 80.9907 431.92C82.0107 431.92 83.0187 431.188 83.0187 429.688C83.0187 428.188 82.0467 427.468 81.0267 427.468C79.9947 427.468 79.0707 428.188 79.0707 429.688ZM85.319 429.664C85.319 427.624 86.699 426.28 88.451 426.28C89.315 426.28 90.227 426.688 90.731 427.312V424.12H92.111V433H90.731V432.004C90.311 432.604 89.519 433.108 88.439 433.108C86.699 433.108 85.319 431.704 85.319 429.664ZM90.731 429.688C90.731 428.272 89.759 427.468 88.727 427.468C87.707 427.468 86.723 428.236 86.723 429.664C86.723 431.092 87.707 431.92 88.727 431.92C89.759 431.92 90.731 431.116 90.731 429.688ZM99.8958 426.388V433H98.5278V432.208C98.0958 432.772 97.3518 433.096 96.5718 433.096C95.0238 433.096 93.8478 432.124 93.8478 430.276V426.388H95.2038V430.072C95.2038 431.284 95.8638 431.908 96.8598 431.908C97.8678 431.908 98.5278 431.284 98.5278 430.072V426.388H99.8958ZM101.245 429.688C101.245 427.624 102.589 426.28 104.485 426.28C106.105 426.28 107.161 427.084 107.533 428.476H106.057C105.829 427.84 105.301 427.432 104.485 427.432C103.381 427.432 102.649 428.248 102.649 429.688C102.649 431.14 103.381 431.956 104.485 431.956C105.301 431.956 105.805 431.596 106.057 430.912H107.533C107.161 432.208 106.105 433.108 104.485 433.108C102.589 433.108 101.245 431.764 101.245 429.688ZM109.112 431.164V427.504H108.332V426.388H109.112V424.744H110.492V426.388H112.1V427.504H110.492V431.164C110.492 431.656 110.684 431.86 111.26 431.86H112.1V433H111.02C109.844 433 109.112 432.508 109.112 431.164ZM116.022 429.664C116.022 427.624 117.402 426.28 119.154 426.28C120.018 426.28 120.93 426.688 121.434 427.312V424.12H122.814V433H121.434V432.004C121.014 432.604 120.222 433.108 119.142 433.108C117.402 433.108 116.022 431.704 116.022 429.664ZM121.434 429.688C121.434 428.272 120.462 427.468 119.43 427.468C118.41 427.468 117.426 428.236 117.426 429.664C117.426 431.092 118.41 431.92 119.43 431.92C120.462 431.92 121.434 431.116 121.434 429.688ZM127.395 427.432C126.471 427.432 125.727 428.056 125.583 429.1H129.243C129.219 428.08 128.415 427.432 127.395 427.432ZM130.491 431.032C130.119 432.184 129.075 433.108 127.455 433.108C125.559 433.108 124.155 431.764 124.155 429.688C124.155 427.612 125.499 426.28 127.455 426.28C129.339 426.28 130.671 427.588 130.671 429.532C130.671 429.76 130.659 429.976 130.623 430.204H125.571C125.667 431.296 126.447 431.956 127.455 431.956C128.295 431.956 128.763 431.548 129.015 431.032H130.491ZM131.237 426.388H132.701L134.573 431.776L136.445 426.388H137.897L135.377 433H133.745L131.237 426.388ZM141.715 427.432C140.791 427.432 140.047 428.056 139.903 429.1H143.563C143.539 428.08 142.735 427.432 141.715 427.432ZM144.811 431.032C144.439 432.184 143.395 433.108 141.775 433.108C139.879 433.108 138.475 431.764 138.475 429.688C138.475 427.612 139.819 426.28 141.775 426.28C143.659 426.28 144.991 427.588 144.991 429.532C144.991 429.76 144.979 429.976 144.943 430.204H139.891C139.987 431.296 140.767 431.956 141.775 431.956C142.615 431.956 143.083 431.548 143.335 431.032H144.811ZM146.338 433V424.12H147.706V433H146.338ZM155.802 429.688C155.802 431.764 154.266 433.108 152.37 433.108C150.486 433.108 149.058 431.764 149.058 429.688C149.058 427.612 150.546 426.28 152.43 426.28C154.314 426.28 155.802 427.612 155.802 429.688ZM150.45 429.688C150.45 431.188 151.338 431.92 152.37 431.92C153.39 431.92 154.398 431.188 154.398 429.688C154.398 428.188 153.426 427.468 152.406 427.468C151.374 427.468 150.45 428.188 150.45 429.688ZM158.522 427.36C158.942 426.808 159.746 426.28 160.826 426.28C162.566 426.28 163.934 427.624 163.934 429.664C163.934 431.704 162.566 433.108 160.826 433.108C159.734 433.108 158.954 432.556 158.522 432.04V436.144H157.154V426.388H158.522V427.36ZM162.542 429.664C162.542 428.236 161.558 427.468 160.526 427.468C159.506 427.468 158.522 428.272 158.522 429.688C158.522 431.116 159.506 431.92 160.526 431.92C161.558 431.92 162.542 431.092 162.542 429.664ZM174.659 433V429.304C174.659 428.092 173.999 427.468 173.003 427.468C171.995 427.468 171.335 428.092 171.335 429.304V433H169.979V429.304C169.979 428.092 169.319 427.468 168.323 427.468C167.315 427.468 166.655 428.092 166.655 429.304V433H165.287V426.388H166.655V427.144C167.099 426.604 167.819 426.28 168.611 426.28C169.655 426.28 170.531 426.724 170.987 427.588C171.395 426.784 172.331 426.28 173.291 426.28C174.839 426.28 176.015 427.252 176.015 429.1V433H174.659ZM180.539 427.432C179.615 427.432 178.871 428.056 178.727 429.1H182.387C182.363 428.08 181.559 427.432 180.539 427.432ZM183.635 431.032C183.263 432.184 182.219 433.108 180.599 433.108C178.703 433.108 177.299 431.764 177.299 429.688C177.299 427.612 178.643 426.28 180.599 426.28C182.483 426.28 183.815 427.588 183.815 429.532C183.815 429.76 183.803 429.976 183.767 430.204H178.715C178.811 431.296 179.591 431.956 180.599 431.956C181.439 431.956 181.907 431.548 182.159 431.032H183.635ZM189.854 433V429.304C189.854 428.092 189.194 427.468 188.198 427.468C187.19 427.468 186.53 428.092 186.53 429.304V433H185.162V426.388H186.53V427.144C186.974 426.604 187.706 426.28 188.498 426.28C190.046 426.28 191.21 427.252 191.21 429.1V433H189.854ZM193.171 431.164V427.504H192.391V426.388H193.171V424.744H194.551V426.388H196.159V427.504H194.551V431.164C194.551 431.656 194.743 431.86 195.319 431.86H196.159V433H195.079C193.903 433 193.171 432.508 193.171 431.164Z" fill="#1D1D1F"/>
<rect x="208" y="114" width="105" height="2" transform="rotate(-90 208 114)" fill="#EC903C" fill-opacity="0.83"/>
<path fill-rule="evenodd" clip-rule="evenodd" d="M209 16C213.418 16 217 12.4183 217 8C217 3.58172 213.418 0 209 0C204.582 0 201 3.58172 201 8C201 12.4183 204.582 16 209 16Z" fill="#EC903C" fill-opacity="0.83"/>
<path fill-rule="evenodd" clip-rule="evenodd" d="M209 12C211.209 12 213 10.2091 213 8C213 5.79086 211.209 4 209 4C206.791 4 205 5.79086 205 8C205 10.2091 206.791 12 209 12Z" fill="white"/>
<rect x="208" y="219" width="105" height="2" transform="rotate(-90 208 219)" fill="#EC903C" fill-opacity="0.83"/>
<path fill-rule="evenodd" clip-rule="evenodd" d="M209 121C213.418 121 217 117.418 217 113C217 108.582 213.418 105 209 105C204.582 105 201 108.582 201 113C201 117.418 204.582 121 209 121Z" fill="#EC903C" fill-opacity="0.83"/>
<path fill-rule="evenodd" clip-rule="evenodd" d="M209 117C211.209 117 213 115.209 213 113C213 110.791 211.209 109 209 109C206.791 109 205 110.791 205 113C205 115.209 206.791 117 209 117Z" fill="white"/>
<rect x="208" y="325" width="105" height="2" transform="rotate(-90 208 325)" fill="#EC903C" fill-opacity="0.83"/>
<path fill-rule="evenodd" clip-rule="evenodd" d="M209 227C213.418 227 217 223.418 217 219C217 214.582 213.418 211 209 211C204.582 211 201 214.582 201 219C201 223.418 204.582 227 209 227Z" fill="#EC903C" fill-opacity="0.83"/>
<path fill-rule="evenodd" clip-rule="evenodd" d="M209 223C211.209 223 213 221.209 213 219C213 216.791 211.209 215 209 215C206.791 215 205 216.791 205 219C205 221.209 206.791 223 209 223Z" fill="white"/>
<rect x="208" y="430" width="105" height="2" transform="rotate(-90 208 430)" fill="#EC903C" fill-opacity="0.83"/>
<path fill-rule="evenodd" clip-rule="evenodd" d="M209 332C213.418 332 217 328.418 217 324C217 319.582 213.418 316 209 316C204.582 316 201 319.582 201 324C201 328.418 204.582 332 209 332Z" fill="#EC903C" fill-opacity="0.83"/>
<path fill-rule="evenodd" clip-rule="evenodd" d="M209 328C211.209 328 213 326.209 213 324C213 321.791 211.209 320 209 320C206.791 320 205 321.791 205 324C205 326.209 206.791 328 209 328Z" fill="white"/>
<path fill-rule="evenodd" clip-rule="evenodd" d="M209 437C213.418 437 217 433.418 217 429C217 424.582 213.418 421 209 421C204.582 421 201 424.582 201 429C201 433.418 204.582 437 209 437Z" fill="#EC903C" fill-opacity="0.83"/>
<path fill-rule="evenodd" clip-rule="evenodd" d="M209 433C211.209 433 213 431.209 213 429C213 426.791 211.209 425 209 425C206.791 425 205 426.791 205 429C205 431.209 206.791 433 209 433Z" fill="white"/>
<path d="M227.369 541V532.66H228.845L231.773 539.2L234.689 532.66H236.153V541H234.785V535.288L232.241 541H231.293L228.737 535.288V541H227.369ZM237.495 537.664C237.495 535.624 238.875 534.28 240.615 534.28C241.731 534.28 242.499 534.808 242.907 535.348V534.388H244.287V541H242.907V540.016C242.487 540.58 241.695 541.108 240.591 541.108C238.875 541.108 237.495 539.704 237.495 537.664ZM242.907 537.688C242.907 536.272 241.935 535.468 240.903 535.468C239.883 535.468 238.899 536.236 238.899 537.664C238.899 539.092 239.883 539.92 240.903 539.92C241.935 539.92 242.907 539.116 242.907 537.688ZM247.452 537.52V541H246.084V534.388H247.452V535.348C247.836 534.688 248.496 534.28 249.432 534.28V535.696H249.084C248.076 535.696 247.452 536.116 247.452 537.52ZM250.689 541V532.12H252.057V537.28L254.457 534.388H256.353L253.305 537.7L256.353 541H254.505L252.057 538.156V541H250.689ZM260.118 535.432C259.194 535.432 258.45 536.056 258.306 537.1H261.966C261.942 536.08 261.138 535.432 260.118 535.432ZM263.214 539.032C262.842 540.184 261.798 541.108 260.178 541.108C258.282 541.108 256.878 539.764 256.878 537.688C256.878 535.612 258.222 534.28 260.178 534.28C262.062 534.28 263.394 535.588 263.394 537.532C263.394 537.76 263.382 537.976 263.346 538.204H258.294C258.39 539.296 259.17 539.956 260.178 539.956C261.018 539.956 261.486 539.548 261.738 539.032H263.214ZM264.956 539.164V535.504H264.176V534.388H264.956V532.744H266.336V534.388H267.944V535.504H266.336V539.164C266.336 539.656 266.528 539.86 267.104 539.86H267.944V541H266.864C265.688 541 264.956 540.508 264.956 539.164ZM269.205 541V534.388H270.573V541H269.205ZM269.901 533.512C269.409 533.512 269.025 533.128 269.025 532.636C269.025 532.144 269.409 531.76 269.901 531.76C270.381 531.76 270.765 532.144 270.765 532.636C270.765 533.128 270.381 533.512 269.901 533.512ZM277.061 541V537.304C277.061 536.092 276.401 535.468 275.405 535.468C274.397 535.468 273.737 536.092 273.737 537.304V541H272.369V534.388H273.737V535.144C274.181 534.604 274.913 534.28 275.705 534.28C277.253 534.28 278.417 535.252 278.417 537.1V541H277.061ZM279.706 537.664C279.706 535.624 281.086 534.28 282.826 534.28C283.906 534.28 284.71 534.784 285.118 535.348V534.388H286.498V541.108C286.498 542.908 285.334 544.264 283.27 544.264C281.506 544.264 280.198 543.388 280.03 541.924H281.386C281.59 542.608 282.322 543.076 283.27 543.076C284.326 543.076 285.118 542.428 285.118 541.108V540.004C284.698 540.568 283.906 541.108 282.826 541.108C281.086 541.108 279.706 539.704 279.706 537.664ZM285.118 537.688C285.118 536.272 284.146 535.468 283.114 535.468C282.094 535.468 281.11 536.236 281.11 537.664C281.11 539.092 282.094 539.92 283.114 539.92C284.146 539.92 285.118 539.116 285.118 537.688ZM290.956 537.688C290.956 535.624 292.3 534.28 294.196 534.28C295.816 534.28 296.872 535.084 297.244 536.476H295.768C295.54 535.84 295.012 535.432 294.196 535.432C293.092 535.432 292.36 536.248 292.36 537.688C292.36 539.14 293.092 539.956 294.196 539.956C295.012 539.956 295.516 539.596 295.768 538.912H297.244C296.872 540.208 295.816 541.108 294.196 541.108C292.3 541.108 290.956 539.764 290.956 537.688ZM298.151 537.664C298.151 535.624 299.531 534.28 301.271 534.28C302.387 534.28 303.155 534.808 303.563 535.348V534.388H304.943V541H303.563V540.016C303.143 540.58 302.351 541.108 301.247 541.108C299.531 541.108 298.151 539.704 298.151 537.664ZM303.563 537.688C303.563 536.272 302.591 535.468 301.559 535.468C300.539 535.468 299.555 536.236 299.555 537.664C299.555 539.092 300.539 539.92 301.559 539.92C302.591 539.92 303.563 539.116 303.563 537.688ZM316.112 541V537.304C316.112 536.092 315.452 535.468 314.456 535.468C313.448 535.468 312.788 536.092 312.788 537.304V541H311.432V537.304C311.432 536.092 310.772 535.468 309.776 535.468C308.768 535.468 308.108 536.092 308.108 537.304V541H306.74V534.388H308.108V535.144C308.552 534.604 309.272 534.28 310.064 534.28C311.108 534.28 311.984 534.724 312.44 535.588C312.848 534.784 313.784 534.28 314.744 534.28C316.292 534.28 317.468 535.252 317.468 537.1V541H316.112ZM320.577 535.36C320.997 534.808 321.801 534.28 322.881 534.28C324.621 534.28 325.989 535.624 325.989 537.664C325.989 539.704 324.621 541.108 322.881 541.108C321.789 541.108 321.009 540.556 320.577 540.04V544.144H319.209V534.388H320.577V535.36ZM324.597 537.664C324.597 536.236 323.613 535.468 322.581 535.468C321.561 535.468 320.577 536.272 320.577 537.688C320.577 539.116 321.561 539.92 322.581 539.92C323.613 539.92 324.597 539.092 324.597 537.664ZM326.885 537.664C326.885 535.624 328.265 534.28 330.005 534.28C331.121 534.28 331.889 534.808 332.297 535.348V534.388H333.677V541H332.297V540.016C331.877 540.58 331.085 541.108 329.981 541.108C328.265 541.108 326.885 539.704 326.885 537.664ZM332.297 537.688C332.297 536.272 331.325 535.468 330.293 535.468C329.273 535.468 328.289 536.236 328.289 537.664C328.289 539.092 329.273 539.92 330.293 539.92C331.325 539.92 332.297 539.116 332.297 537.688ZM335.474 541V534.388H336.842V541H335.474ZM336.17 533.512C335.678 533.512 335.294 533.128 335.294 532.636C335.294 532.144 335.678 531.76 336.17 531.76C336.65 531.76 337.034 532.144 337.034 532.636C337.034 533.128 336.65 533.512 336.17 533.512ZM343.33 541V537.304C343.33 536.092 342.67 535.468 341.674 535.468C340.666 535.468 340.006 536.092 340.006 537.304V541H338.638V534.388H340.006V535.144C340.45 534.604 341.182 534.28 341.974 534.28C343.522 534.28 344.686 535.252 344.686 537.1V541H343.33Z" fill="#1D1D1F"/>
<path d="M4.01267 637.66C6.68867 637.66 8.44067 639.28 8.44067 641.86C8.44067 644.428 6.68867 646 4.01267 646H1.28867V637.66H4.01267ZM2.65667 644.884H4.01267C5.98067 644.884 7.03667 643.756 7.03667 641.86C7.03667 639.952 5.98067 638.776 4.01267 638.776H2.65667V644.884ZM9.34048 642.664C9.34048 640.624 10.7205 639.28 12.4605 639.28C13.5765 639.28 14.3445 639.808 14.7525 640.348V639.388H16.1325V646H14.7525V645.016C14.3325 645.58 13.5405 646.108 12.4365 646.108C10.7205 646.108 9.34048 644.704 9.34048 642.664ZM14.7525 642.688C14.7525 641.272 13.7805 640.468 12.7485 640.468C11.7285 640.468 10.7445 641.236 10.7445 642.664C10.7445 644.092 11.7285 644.92 12.7485 644.92C13.7805 644.92 14.7525 644.116 14.7525 642.688ZM18.1453 644.164V640.504H17.3653V639.388H18.1453V637.744H19.5253V639.388H21.1333V640.504H19.5253V644.164C19.5253 644.656 19.7173 644.86 20.2933 644.86H21.1333V646H20.0533C18.8773 646 18.1453 645.508 18.1453 644.164ZM21.9381 642.664C21.9381 640.624 23.3181 639.28 25.0581 639.28C26.1741 639.28 26.9421 639.808 27.3501 640.348V639.388H28.7301V646H27.3501V645.016C26.9301 645.58 26.1381 646.108 25.0341 646.108C23.3181 646.108 21.9381 644.704 21.9381 642.664ZM27.3501 642.688C27.3501 641.272 26.3781 640.468 25.3461 640.468C24.3261 640.468 23.3421 641.236 23.3421 642.664C23.3421 644.092 24.3261 644.92 25.3461 644.92C26.3781 644.92 27.3501 644.116 27.3501 642.688ZM33.1881 642.664C33.1881 640.624 34.5681 639.28 36.3081 639.28C37.4241 639.28 38.1921 639.808 38.6001 640.348V639.388H39.9801V646H38.6001V645.016C38.1801 645.58 37.3881 646.108 36.2841 646.108C34.5681 646.108 33.1881 644.704 33.1881 642.664ZM38.6001 642.688C38.6001 641.272 37.6281 640.468 36.5961 640.468C35.5761 640.468 34.5921 641.236 34.5921 642.664C34.5921 644.092 35.5761 644.92 36.5961 644.92C37.6281 644.92 38.6001 644.116 38.6001 642.688ZM46.469 646V642.304C46.469 641.092 45.809 640.468 44.813 640.468C43.805 640.468 43.145 641.092 43.145 642.304V646H41.777V639.388H43.145V640.144C43.589 639.604 44.321 639.28 45.113 639.28C46.661 639.28 47.825 640.252 47.825 642.1V646H46.469ZM49.1139 642.664C49.1139 640.624 50.4939 639.28 52.2459 639.28C53.1099 639.28 54.0219 639.688 54.5259 640.312V637.12H55.9059V646H54.5259V645.004C54.1059 645.604 53.3139 646.108 52.2339 646.108C50.4939 646.108 49.1139 644.704 49.1139 642.664ZM54.5259 642.688C54.5259 641.272 53.5539 640.468 52.5219 640.468C51.5019 640.468 50.5179 641.236 50.5179 642.664C50.5179 644.092 51.5019 644.92 52.5219 644.92C53.5539 644.92 54.5259 644.116 54.5259 642.688ZM62.1879 640.36C62.6079 639.808 63.4119 639.28 64.4919 639.28C66.2319 639.28 67.5999 640.624 67.5999 642.664C67.5999 644.704 66.2319 646.108 64.4919 646.108C63.3999 646.108 62.6199 645.556 62.1879 645.04V649.144H60.8199V639.388H62.1879V640.36ZM66.2079 642.664C66.2079 641.236 65.2239 640.468 64.1919 640.468C63.1719 640.468 62.1879 641.272 62.1879 642.688C62.1879 644.116 63.1719 644.92 64.1919 644.92C65.2239 644.92 66.2079 644.092 66.2079 642.664ZM71.7367 640.432C70.8127 640.432 70.0687 641.056 69.9247 642.1H73.5847C73.5607 641.08 72.7567 640.432 71.7367 640.432ZM74.8327 644.032C74.4607 645.184 73.4167 646.108 71.7967 646.108C69.9007 646.108 68.4967 644.764 68.4967 642.688C68.4967 640.612 69.8407 639.28 71.7967 639.28C73.6807 639.28 75.0127 640.588 75.0127 642.532C75.0127 642.76 75.0007 642.976 74.9647 643.204H69.9127C70.0087 644.296 70.7887 644.956 71.7967 644.956C72.6367 644.956 73.1047 644.548 73.3567 644.032H74.8327ZM77.727 642.52V646H76.359V639.388H77.727V640.348C78.111 639.688 78.771 639.28 79.707 639.28V640.696H79.359C78.351 640.696 77.727 641.116 77.727 642.52ZM81.1325 646V640.504H80.3525V639.388H81.1325V638.92C81.1325 637.396 81.9125 636.736 83.6405 636.736V637.876C82.8005 637.876 82.5125 638.164 82.5125 638.92V639.388H83.7365V640.504H82.5125V646H81.1325ZM91.2488 642.688C91.2488 644.764 89.7128 646.108 87.8168 646.108C85.9328 646.108 84.5048 644.764 84.5048 642.688C84.5048 640.612 85.9928 639.28 87.8768 639.28C89.7608 639.28 91.2488 640.612 91.2488 642.688ZM85.8968 642.688C85.8968 644.188 86.7848 644.92 87.8168 644.92C88.8368 644.92 89.8448 644.188 89.8448 642.688C89.8448 641.188 88.8728 640.468 87.8528 640.468C86.8208 640.468 85.8968 641.188 85.8968 642.688ZM93.9692 642.52V646H92.6012V639.388H93.9692V640.348C94.3532 639.688 95.0132 639.28 95.9492 639.28V640.696H95.6012C94.5932 640.696 93.9692 641.116 93.9692 642.52ZM106.579 646V642.304C106.579 641.092 105.919 640.468 104.923 640.468C103.915 640.468 103.255 641.092 103.255 642.304V646H101.899V642.304C101.899 641.092 101.239 640.468 100.243 640.468C99.2346 640.468 98.5746 641.092 98.5746 642.304V646H97.2066V639.388H98.5746V640.144C99.0186 639.604 99.7386 639.28 100.531 639.28C101.575 639.28 102.451 639.724 102.907 640.588C103.315 639.784 104.251 639.28 105.211 639.28C106.759 639.28 107.935 640.252 107.935 642.1V646H106.579ZM109.219 642.664C109.219 640.624 110.599 639.28 112.339 639.28C113.455 639.28 114.223 639.808 114.631 640.348V639.388H116.011V646H114.631V645.016C114.211 645.58 113.419 646.108 112.315 646.108C110.599 646.108 109.219 644.704 109.219 642.664ZM114.631 642.688C114.631 641.272 113.659 640.468 112.627 640.468C111.607 640.468 110.623 641.236 110.623 642.664C110.623 644.092 111.607 644.92 112.627 644.92C113.659 644.92 114.631 644.116 114.631 642.688ZM122.5 646V642.304C122.5 641.092 121.84 640.468 120.844 640.468C119.836 640.468 119.176 641.092 119.176 642.304V646H117.808V639.388H119.176V640.144C119.62 639.604 120.352 639.28 121.144 639.28C122.692 639.28 123.856 640.252 123.856 642.1V646H122.5ZM125.145 642.688C125.145 640.624 126.489 639.28 128.385 639.28C130.005 639.28 131.061 640.084 131.433 641.476H129.957C129.729 640.84 129.201 640.432 128.385 640.432C127.281 640.432 126.549 641.248 126.549 642.688C126.549 644.14 127.281 644.956 128.385 644.956C129.201 644.956 129.705 644.596 129.957 643.912H131.433C131.061 645.208 130.005 646.108 128.385 646.108C126.489 646.108 125.145 644.764 125.145 642.688ZM135.58 640.432C134.656 640.432 133.912 641.056 133.768 642.1H137.428C137.404 641.08 136.6 640.432 135.58 640.432ZM138.676 644.032C138.304 645.184 137.26 646.108 135.64 646.108C133.744 646.108 132.34 644.764 132.34 642.688C132.34 640.612 133.684 639.28 135.64 639.28C137.524 639.28 138.856 640.588 138.856 642.532C138.856 642.76 138.844 642.976 138.808 643.204H133.756C133.852 644.296 134.632 644.956 135.64 644.956C136.48 644.956 136.948 644.548 137.2 644.032H138.676ZM142.864 642.664C142.864 640.624 144.244 639.28 145.984 639.28C147.1 639.28 147.868 639.808 148.276 640.348V639.388H149.656V646H148.276V645.016C147.856 645.58 147.064 646.108 145.96 646.108C144.244 646.108 142.864 644.704 142.864 642.664ZM148.276 642.688C148.276 641.272 147.304 640.468 146.272 640.468C145.252 640.468 144.268 641.236 144.268 642.664C144.268 644.092 145.252 644.92 146.272 644.92C147.304 644.92 148.276 644.116 148.276 642.688ZM156.145 646V642.304C156.145 641.092 155.485 640.468 154.489 640.468C153.481 640.468 152.821 641.092 152.821 642.304V646H151.453V639.388H152.821V640.144C153.265 639.604 153.997 639.28 154.789 639.28C156.337 639.28 157.501 640.252 157.501 642.1V646H156.145ZM158.79 642.664C158.79 640.624 160.17 639.28 161.91 639.28C163.026 639.28 163.794 639.808 164.202 640.348V639.388H165.582V646H164.202V645.016C163.782 645.58 162.99 646.108 161.886 646.108C160.17 646.108 158.79 644.704 158.79 642.664ZM164.202 642.688C164.202 641.272 163.23 640.468 162.198 640.468C161.178 640.468 160.194 641.236 160.194 642.664C160.194 644.092 161.178 644.92 162.198 644.92C163.23 644.92 164.202 644.116 164.202 642.688ZM167.379 646V637.12H168.747V646H167.379ZM173.147 644.428L175.079 639.388H176.495L172.439 649.108H171.023L172.367 645.892L169.763 639.388H171.287L173.147 644.428ZM182.459 644.152C182.459 645.268 181.487 646.108 179.927 646.108C178.343 646.108 177.227 645.172 177.167 643.972H178.583C178.631 644.512 179.147 644.956 179.903 644.956C180.695 644.956 181.115 644.62 181.115 644.164C181.115 642.868 177.275 643.612 177.275 641.188C177.275 640.132 178.259 639.28 179.819 639.28C181.319 639.28 182.303 640.084 182.375 641.404H181.007C180.959 640.828 180.515 640.432 179.771 640.432C179.039 640.432 178.655 640.732 178.655 641.176C178.655 642.508 182.387 641.764 182.459 644.152ZM183.937 646V639.388H185.305V646H183.937ZM184.633 638.512C184.141 638.512 183.757 638.128 183.757 637.636C183.757 637.144 184.141 636.76 184.633 636.76C185.113 636.76 185.497 637.144 185.497 637.636C185.497 638.128 185.113 638.512 184.633 638.512ZM192.033 644.152C192.033 645.268 191.061 646.108 189.501 646.108C187.917 646.108 186.801 645.172 186.741 643.972H188.157C188.205 644.512 188.721 644.956 189.477 644.956C190.269 644.956 190.689 644.62 190.689 644.164C190.689 642.868 186.849 643.612 186.849 641.188C186.849 640.132 187.833 639.28 189.393 639.28C190.893 639.28 191.877 640.084 191.949 641.404H190.581C190.533 640.828 190.089 640.432 189.345 640.432C188.613 640.432 188.229 640.732 188.229 641.176C188.229 642.508 191.961 641.764 192.033 644.152Z" fill="#1D1D1F"/>
<rect x="208" y="538" width="105" height="2" transform="rotate(-90 208 538)" fill="#EC903C" fill-opacity="0.83"/>
<rect x="208" y="643" width="105" height="2" transform="rotate(-90 208 643)" fill="#EC903C" fill-opacity="0.83"/>
<path fill-rule="evenodd" clip-rule="evenodd" d="M209 545C213.418 545 217 541.418 217 537C217 532.582 213.418 529 209 529C204.582 529 201 532.582 201 537C201 541.418 204.582 545 209 545Z" fill="#EC903C" fill-opacity="0.83"/>
<path fill-rule="evenodd" clip-rule="evenodd" d="M209 541C211.209 541 213 539.209 213 537C213 534.791 211.209 533 209 533C206.791 533 205 534.791 205 537C205 539.209 206.791 541 209 541Z" fill="white"/>
<path fill-rule="evenodd" clip-rule="evenodd" d="M209 650C213.418 650 217 646.418 217 642C217 637.582 213.418 634 209 634C204.582 634 201 637.582 201 642C201 646.418 204.582 650 209 650Z" fill="#EC903C" fill-opacity="0.83"/>
<path fill-rule="evenodd" clip-rule="evenodd" d="M209 646C211.209 646 213 644.209 213 642C213 639.791 211.209 638 209 638C206.791 638 205 639.791 205 642C205 644.209 206.791 646 209 646Z" fill="white"/>
</svg>
